<?xml version="1.0" standalone="no"?>
<!DOCTYPE svg PUBLIC "-//W3C//DTD SVG 20010904//EN"
 "http://www.w3.org/TR/2001/REC-SVG-20010904/DTD/svg10.dtd">
<svg version="1.0" xmlns="http://www.w3.org/2000/svg"
 width="700.000000pt" height="700.000000pt" viewBox="0 0 700.000000 700.000000"
 preserveAspectRatio="xMidYMid meet">
<metadata>
Created by potrace 1.14, written by Peter Selinger 2001-2017
</metadata>
<g transform="translate(0.000000,700.000000) scale(0.100000,-0.100000)"
fill="#000000" stroke="none">
<path d="M18 6548 c28 -46 98 -171 140 -248 19 -36 44 -76 54 -89 10 -13 18
-27 18 -32 0 -4 19 -40 43 -81 24 -40 56 -95 71 -123 16 -27 105 -185 199
-350 93 -165 179 -316 190 -335 11 -19 54 -96 97 -170 42 -74 88 -155 102
-180 14 -25 71 -125 126 -222 56 -98 116 -204 133 -235 18 -32 49 -87 71 -122
21 -34 38 -65 38 -68 0 -2 25 -48 56 -101 31 -53 68 -117 82 -142 14 -25 108
-191 210 -370 102 -179 194 -341 205 -360 10 -19 56 -100 102 -180 111 -197
132 -234 177 -314 21 -38 42 -74 47 -80 4 -6 22 -36 38 -66 39 -73 488 -862
524 -923 16 -26 29 -49 29 -52 0 -2 31 -57 68 -122 38 -65 80 -138 94 -163 14
-25 121 -214 238 -420 118 -206 238 -419 269 -472 30 -54 57 -98 61 -98 3 0
42 64 87 143 44 78 146 257 226 397 186 327 184 325 220 390 17 30 38 67 49
82 10 14 18 29 18 32 0 4 10 23 23 44 13 20 37 62 54 92 57 103 143 255 153
270 5 8 18 31 28 50 10 19 82 145 159 280 169 297 433 760 463 815 12 22 69
121 125 220 256 451 479 844 565 995 51 91 106 186 121 213 16 26 29 52 29 57
0 6 5 10 10 10 6 0 10 5 10 10 0 6 73 137 161 293 89 155 173 302 187 327 14
25 42 74 62 110 20 36 49 85 62 110 14 25 52 92 85 150 77 133 388 680 421
740 14 25 36 62 49 82 12 21 23 40 23 42 0 5 49 92 92 164 l20 32 -3502 0
-3502 0 20 -32z"/>
</g>
</svg>
